Patient4_TMGait_0pt3_02_right_19_EMG.mot
version=1
nRows=23
nColumns=33
inDegrees=no
endheader
time	1LAddLong	2LGlutMax	3LGlutMed	4LIliopsoas	5LSemiMemb	6LBicFemLong	7LRecFem	8LVastMed	9LVastLat	10LGasMed	11LTibAnt	12lTibPost	13LPeroneusLong	14LSol	15LExtDigLong	16LFlexDigLong	17RAddLong	18RGlutMax	19RGlutMed	20RIliopsoas	21RSemiMemb	22RBicFemLong	23RRecFem	24RVastMed	25RVastLat	26RGasMed	27RTibAnt	28RTibPost	29RPeroneusLong	30RSol	31RExtDigLong	32RFlexDigLong
37.47	0.021515	0.081024	0.03067	-0.001068	0.10239	0.004272	-0.028687	-0.006104	-0.008698	-0.023193	-0.003815	-0.000305	-0.095673	0.00351	-0.11261	-0.024567	0.016479	-0.13077	0.30487	0.18555	-0.039978	-0.068054	-0.23987	0.019073	-0.42541	0.002289	-0.051727	-0.005646	0.25223	0.15793	0.00885	-0.006104
37.471	0.007324	0.07843	0.032959	0.004425	0.007477	0.019073	-0.020599	-0.010529	0	-0.024109	-0.000916	-0.00885	-0.071259	0.057526	-0.087433	-0.026398	0.013275	-0.099487	0.58899	0.20767	0.06012	-0.055084	-0.055695	0.053406	-0.46921	0.00473	-0.006409	-0.009918	-0.16235	0.1091	-0.001221	-0.009613
37.472	-0.007324	0.055847	-0.002594	-0.004883	-0.023499	0.010376	-0.026093	-0.038757	-0.009308	-0.020142	-0.015106	-0.015564	-0.077057	0.051117	-0.057983	-0.012817	0.01297	-0.12604	0.42831	0.24628	0.13138	-0.006561	0.007324	-0.032196	-0.32303	0.013733	-0.018768	-0.011139	-0.079041	0.072174	-0.003662	-0.00946
37.473	-0.011749	0.09552	-0.057373	-0.004578	-0.075836	-0.003357	-0.015411	-0.073395	-0.013428	-0.011139	-0.010986	-0.007477	-0.05249	0.013733	-0.007019	-0.041504	0.028381	-0.10086	0.13138	0.12405	0.14099	0.031281	-0.075378	-0.027618	-0.13992	0.010986	-0.003052	-0.006866	0.005798	0.097656	-0.004425	-0.015869
37.474	-0.00412	0.084534	-0.094604	0.004883	-0.14343	-0.005493	-0.030518	-0.025787	-0.012817	-0.006409	0.026245	-0.012512	-0.050049	0.043182	0.03006	-0.021515	-0.002441	-0.028992	0.15808	0.026398	-0.025635	0.061798	-0.13077	0.077667	-0.063171	0.007477	-0.032959	-0.00824	0.12878	0.12131	-0.00061	-0.011902
37.475	-0.006714	0.12512	-0.082855	0.008392	-0.15671	-0.043945	-0.030518	-0.004425	0.001221	-0.004272	0.052795	-0.008087	-0.092316	0.021973	0.066223	-0.036469	-0.036926	-0.021667	0.001068	-0.034637	-0.15152	-0.021057	-0.1741	0.13199	-0.037231	0.002594	0.020752	-0.003815	0.20371	0.006256	0.001221	-0.01358
37.476	0.003967	0.10727	-0.016785	0.004425	-0.10666	-0.028534	-0.039978	-0.022583	0.002747	-0.006256	0.051117	-0.005798	-0.09201	0.022888	0.039978	-0.023041	-0.007629	-0.059052	0.045471	-0.041504	-0.009003	-0.028229	-0.11795	0.038147	-0.043335	-0.014191	0.12909	-0.002289	0.015259	-0.038452	-0.001831	-0.011902
37.477	0.029144	0.081787	0.045471	0.005341	-0.09491	-0.046539	-0.044861	-0.015106	-0.005188	-0.018768	0.059052	-0.005341	-0.049896	0.045929	0.042419	-0.034027	0.003815	-0.033875	0.004578	-0.059509	-0.064697	-0.012665	-0.053101	-0.028992	-0.026093	-0.025177	0.15137	-0.007629	-0.30868	-0.067139	-0.00061	-0.010376
37.478	0.036316	0.050201	0.033112	0.013123	-0.075226	-0.050507	-0.066223	-0.024719	0.019226	-0.010834	-0.003815	-0.010986	-0.079803	0.051422	0.04715	-0.028992	-0.022125	-0.087891	0.09491	-0.022583	-0.051117	0.081635	-0.093384	-0.02594	-0.011444	-0.020294	0.14603	-0.006714	-0.41	-0.044861	0.003052	-0.003815
37.479	0.035858	0.062408	-0.012665	0.007935	0.11017	-0.051422	-0.059357	-0.008545	-0.011139	-0.005035	-0.014343	-0.014191	-0.061646	0.012054	0.060272	-0.017242	-0.038147	0.009308	-0.17502	0.085754	-0.096436	0.14221	-0.097809	-0.046997	0.002747	-0.030975	0.074768	-0.002289	-0.28198	0.03891	-0.006714	0.003967
37.48	0.020447	0.075531	-0.057373	0.007477	0.15976	0.001831	-0.064545	-0.011444	-0.007019	-0.016785	-0.019226	-0.015869	-0.072479	-0.007172	0.065613	-0.041199	-0.026398	-0.00946	-0.20767	0.040894	-0.21484	0.23636	-0.074463	-0.041962	0.001831	-0.045776	0.042114	0.000458	-0.22415	0.06485	-0.00351	0.003052
37.481	0.016632	0.072632	-0.072784	0.005188	0.11337	0.067444	-0.019989	-0.008392	0.001526	-0.029602	-0.039673	-0.013123	-0.078125	0.010071	0.095673	-0.019684	-0.028229	-0.016022	0.069427	-0.089264	-0.099487	0.21301	-0.017853	-0.026093	0.003815	-0.055084	0.041504	-0.001068	0.024109	0.02655	-0.001984	0.004578
37.482	0.006409	0.072784	-0.014343	0.001831	0.081635	0.068054	-0.003815	-0.001831	0.033112	-0.014496	-0.025482	-0.01709	-0.049286	0.022888	0.064545	-0.035858	-0.002441	-0.016174	-0.094757	-0.13382	-0.021973	0.099945	0.031281	-0.08728	-0.000916	-0.047455	0.028687	0.000763	0.13763	0.10208	-0.000153	-0.000763
37.483	0.013275	0.053558	-0.002594	-0.006561	0.090637	0.021973	-0.000458	-0.003662	0.034637	0.01236	-0.016785	-0.019684	-0.072021	0.005646	0.034485	-0.022278	0.015259	0.053406	-0.18494	-0.103	0.036163	0.053101	0.07309	-0.046997	0.005646	-0.014496	0.032959	0.005188	0.31982	0.3035	0.00412	-0.00473
37.484	0.016174	0.037689	0.055084	0.010834	0.12878	0.034027	0.008087	-0.011444	0.016174	0.015259	-0.005341	-0.015259	-0.12558	0.012054	0.010071	-0.019073	0.021362	0.083771	0.12177	-0.04837	0.17242	-0.034943	0.077515	-0.044708	-0.013123	0.052185	0.04364	0.003967	0.39703	0.29495	-0.003052	-0.009003
37.485	0.014648	0.027924	0.058899	0.010376	0.090637	0.04837	-0.009918	-0.013733	-0.002136	-0.006561	-0.022888	-0.016174	-0.098267	0.007935	0.015564	-0.019684	0.02121	0.07782	0.016174	-0.011902	0.1947	-0.10681	0.10773	-0.034485	-0.026093	0.041962	0.037994	-0.15595	0.2945	0.21454	-0.002747	-0.006256
37.486	0.011139	0.033417	0.025177	-0.002899	0.041046	0.064545	-0.042877	-0.019531	-0.057373	-0.027008	-0.032501	-0.020752	-0.073242	0	0.056	-0.022125	0.018005	0.10178	0.21561	0.026398	0.060425	-0.07019	0.12329	-0.10056	-0.052948	0.00885	0.040741	-0.082703	0.14572	0.045319	0.000763	-0.005798
37.487	0.000458	0.007935	0.005341	0.010376	-0.024414	0.093079	-0.068665	-0.02121	-0.024719	-0.011902	-0.033112	-0.013123	-0.017853	-0.018311	0.020905	-0.034485	0.019684	0.028229	0.20783	0.1149	-0.11719	0.00824	0.021057	-0.17853	-0.082855	0.000153	0.061493	0.2005	0.018158	-0.224	-0.001678	-0.003204
37.488	-0.018311	-0.006714	0.021973	0.010071	-0.083466	0.13763	-0.063477	-0.016479	-0.028534	-0.001068	0.007935	-0.013275	-0.056915	-0.025635	-0.007629	-0.02182	0.016022	0.022583	-0.080109	0.094757	-0.1535	0.04303	-0.081329	-0.16281	-0.091858	-0.010223	0.063019	0.061035	-0.065918	0.081482	-0.00412	-0.01297
37.489	-0.034332	0.007477	-0.001984	0.013428	-0.10178	0.12634	-0.1088	-0.024719	-0.00946	0.016174	0.026245	-0.016937	-0.005341	-0.015717	-0.00351	-0.027313	0.028381	0.11612	0.050354	-0.002747	0.096588	0.007019	-0.12589	-0.10346	-0.049744	-0.010071	0.11658	0.020447	-0.10407	0.30777	-0.002441	-0.008392
37.49	-0.033264	0.003204	0.019684	-0.005341	-0.14145	0.1152	-0.11337	-0.014954	-0.020294	0.001373	-0.019226	-0.007324	-0.016479	-0.018921	0.026245	-0.024719	-0.000458	0.093842	0.1828	-0.009766	0.18372	-0.034485	-0.098572	0.091095	0.14099	-0.000305	0.19073	0.027313	-0.015717	0.099792	-0.00473	-0.005646
37.491	-0.031433	0.019684	0.04303	0.002289	-0.15488	0.04303	-0.09491	-0.012817	-0.000916	-0.000305	-0.00885	-0.008545	0.005341	-0.035706	0.026855	-0.033569	-0.013428	0.14023	0.040741	0.067139	0.09613	-0.013123	-0.059204	0.12253	0.047302	-0.000458	0.23697	0.011902	-0.023346	-0.075073	-0.008545	-0.014496
37.492	-0.014191	0.027618	0.037689	0.004578	-0.024872	-0.020294	-0.085297	-0.013275	0.043335	0.001678	0.018768	-0.005951	0.020599	-0.013123	0.054169	-0.032349	-0.004578	0.12756	-0.072784	0.088501	0.061646	0.021973	-0.18173	-0.050659	0.002594	-0.004272	0.28946	0.004883	-0.037231	-0.11765	-0.00473	-0.001984
